<?xml version="1.0" encoding="UTF-8"?>
<svg version="1.1" xmlns="http://www.w3.org/2000/svg" width="256" height="256">
<path d="M0 0 C0.66918461 -0.00226556 1.33836922 -0.00453111 2.02783215 -0.00686532 C4.25694542 -0.01316558 6.48599726 -0.01237853 8.71511841 -0.0115509 C10.31876707 -0.01454486 11.92241501 -0.01794793 13.52606201 -0.02172852 C17.87321653 -0.0305482 22.22035135 -0.03290576 26.56751394 -0.0335443 C29.2856234 -0.0342559 32.00372787 -0.0363923 34.72183609 -0.03904152 C44.2104855 -0.04828788 53.69912089 -0.05237725 63.18777466 -0.05158997 C72.02301728 -0.05098921 80.85819884 -0.06154245 89.69342601 -0.07733363 C97.28766729 -0.0904216 104.88188863 -0.09577334 112.4761411 -0.09513456 C117.00799974 -0.09487996 121.53980408 -0.09771009 126.07165146 -0.10831261 C130.33489963 -0.11801486 134.59804182 -0.11805821 138.86129379 -0.11079597 C140.42212072 -0.10975281 141.98295432 -0.11209705 143.54376984 -0.11815643 C154.39579394 -0.15754341 162.99706416 1.16225409 173.10623169 5.13371277 C173.10623169 5.79371277 173.10623169 6.45371277 173.10623169 7.13371277 C173.76623169 7.17496277 174.42623169 7.21621277 175.10623169 7.25871277 C183.82448173 9.8015357 190.24612764 17.82760449 195.10623169 25.13371277 C195.86013794 27.97355652 195.86013794 27.97355652 196.10623169 30.13371277 C196.76623169 30.13371277 197.42623169 30.13371277 198.10623169 30.13371277 C198.75988568 31.67207984 199.40376772 33.21460043 200.04373169 34.75871277 C200.40338013 35.61722839 200.76302856 36.47574402 201.13357544 37.36027527 C202.95225991 42.5460824 203.23228084 47.57054225 203.23994446 53.03421021 C203.24221001 53.70410038 203.24447557 54.37399056 203.24680978 55.06418043 C203.25311005 57.29562766 203.25232299 59.52701353 203.25149536 61.75846863 C203.25448929 63.36373981 203.25789236 64.96901027 203.26167297 66.57427979 C203.27049225 70.92549925 203.27285018 75.27669905 203.27348876 79.62792659 C203.2742003 82.34803836 203.27633658 85.06814516 203.27898598 87.78825569 C203.2882317 97.28223614 203.29232173 106.77620257 203.29153442 116.27018738 C203.29093345 125.11340238 203.30149103 133.95655642 203.31727809 142.79975599 C203.33036009 150.39907713 203.33571806 157.99837836 203.33507901 165.59771067 C203.33482427 170.1334498 203.33766251 174.6691347 203.34825706 179.20486259 C203.35794944 183.47056998 203.35800941 187.7361714 203.35074043 192.00188255 C203.34969609 193.56474208 203.35204853 195.12760824 203.35810089 196.69045639 C203.36584513 198.82917193 203.36116026 200.9675237 203.35346985 203.10623169 C203.35401462 204.30137862 203.35455938 205.49652555 203.35512066 206.72788906 C203.08448777 210.43125897 202.24094069 213.60576456 201.10623169 217.13371277 C200.82521606 218.00898621 200.54420044 218.88425964 200.25466919 219.78605652 C199.99943481 220.54015808 199.74420044 221.29425964 199.48123169 222.07121277 C199.22084106 222.84336121 198.96045044 223.61550964 198.69216919 224.41105652 C198.40213013 225.26377136 198.40213013 225.26377136 198.10623169 226.13371277 C197.44623169 226.13371277 196.78623169 226.13371277 196.10623169 226.13371277 C196.05724731 226.82465027 196.00826294 227.51558777 195.95779419 228.22746277 C194.76293691 232.3053243 192.38004395 234.60856002 189.48123169 237.63371277 C188.972052 238.18929871 188.46287231 238.74488464 187.93826294 239.31730652 C184.31645736 243.17511948 180.57603571 246.28832684 176.10623169 249.13371277 C175.11623169 249.13371277 174.12623169 249.13371277 173.10623169 249.13371277 C173.10623169 249.79371277 173.10623169 250.45371277 173.10623169 251.13371277 C171.56786461 251.78736676 170.02534403 252.4312488 168.48123169 253.07121277 C167.62271606 253.43086121 166.76420044 253.79050964 165.87966919 254.16105652 C160.69613007 255.97894559 155.67375651 256.25975692 150.21246338 256.26742554 C149.54327877 256.26969109 148.87409416 256.27195665 148.18463123 256.27429086 C145.95551796 256.28059112 143.72646612 256.27980407 141.49734497 256.27897644 C139.89369631 256.28197039 138.29004837 256.28537347 136.68640137 256.28915405 C132.33924685 256.29797373 127.99211203 256.3003313 123.64494944 256.30096984 C120.92683998 256.30168144 118.20873551 256.30381784 115.49062729 256.30646706 C106.00197787 256.31571342 96.51334249 256.31980279 87.02468872 256.3190155 C78.1894461 256.31841475 69.35426454 256.32896799 60.51903737 256.34475917 C52.92479609 256.35784714 45.33057475 256.36319888 37.73632228 256.36256009 C33.20446364 256.3623055 28.6726593 256.36513563 24.14081192 256.37573814 C19.87756375 256.38544039 15.61442156 256.38548374 11.35116959 256.37822151 C9.79034266 256.37717835 8.22950906 256.37952259 6.66869354 256.38558197 C-4.18333056 256.42496895 -12.78460078 255.10517144 -22.89376831 251.13371277 C-22.89376831 250.47371277 -22.89376831 249.81371277 -22.89376831 249.13371277 C-23.93017456 249.06023621 -23.93017456 249.06023621 -24.98751831 248.98527527 C-29.06537984 247.79041799 -31.36861556 245.40752503 -34.39376831 242.50871277 C-35.22714722 241.74494324 -35.22714722 241.74494324 -36.07736206 240.96574402 C-39.93517502 237.34393844 -43.04838238 233.60351679 -45.89376831 229.13371277 C-45.89376831 228.14371277 -45.89376831 227.15371277 -45.89376831 226.13371277 C-46.55376831 226.13371277 -47.21376831 226.13371277 -47.89376831 226.13371277 C-48.54742231 224.59534569 -49.19130435 223.05282511 -49.83126831 221.50871277 C-50.19091675 220.65019714 -50.55056519 219.79168152 -50.92111206 218.90715027 C-52.73979653 213.72134314 -53.01981746 208.69688328 -53.02748108 203.23321533 C-53.02974664 202.56332516 -53.03201219 201.89343498 -53.0343464 201.2032451 C-53.04064667 198.97179788 -53.03985961 196.74041201 -53.03903198 194.50895691 C-53.04202591 192.90368573 -53.04542898 191.29841527 -53.04920959 189.69314575 C-53.05802887 185.34192628 -53.0603868 180.99072649 -53.06102538 176.63949895 C-53.06173693 173.91938718 -53.0638732 171.19928038 -53.0665226 168.47916985 C-53.07576832 158.98518939 -53.07985835 149.49122296 -53.07907104 139.99723816 C-53.07847008 131.15402316 -53.08902765 122.31086912 -53.10481471 113.46766955 C-53.11789672 105.86834841 -53.12325468 98.26904718 -53.12261564 90.66971487 C-53.12236089 86.13397574 -53.12519913 81.59829083 -53.13579369 77.06256294 C-53.14548606 72.79685556 -53.14554603 68.53125414 -53.13827705 64.26554298 C-53.13723271 62.70268346 -53.13958515 61.1398173 -53.14563751 59.57696915 C-53.15338175 57.43825361 -53.14869688 55.29990183 -53.14100647 53.16119385 C-53.14155124 51.96604692 -53.142096 50.77089998 -53.14265728 49.53953648 C-52.87202439 45.83616657 -52.02847731 42.66166097 -50.89376831 39.13371277 C-50.61275269 38.25843933 -50.33173706 37.38316589 -50.04220581 36.48136902 C-49.78697144 35.72726746 -49.53173706 34.97316589 -49.26876831 34.19621277 C-49.00837769 33.42406433 -48.74798706 32.65191589 -48.47970581 31.85636902 C-48.28634644 31.28789246 -48.09298706 30.71941589 -47.89376831 30.13371277 C-47.23376831 30.13371277 -46.57376831 30.13371277 -45.89376831 30.13371277 C-45.84478394 29.44277527 -45.79579956 28.75183777 -45.74533081 28.03996277 C-44.55047353 23.96210124 -42.16758057 21.65886552 -39.26876831 18.63371277 C-38.75958862 18.07812683 -38.25040894 17.52254089 -37.72579956 16.95011902 C-34.10399398 13.09230606 -30.36357233 9.9790987 -25.89376831 7.13371277 C-24.90376831 7.13371277 -23.91376831 7.13371277 -22.89376831 7.13371277 C-22.89376831 6.47371277 -22.89376831 5.81371277 -22.89376831 5.13371277 C-21.35540123 4.48005877 -19.81288065 3.83617673 -18.26876831 3.19621277 C-17.41025269 2.83656433 -16.55173706 2.47691589 -15.66720581 2.10636902 C-10.48366669 0.28847995 -5.46129313 0.00766862 0 0 Z " fill="#36B670" transform="translate(52.893768310546875,-0.1337127685546875)"/>
<path d="M0 0 C1.73238946 0.02513059 3.46481429 0.0479353 5.19726562 0.06835938 C9.40395045 0.11865451 13.60563141 0.21655013 17.8125 0.3125 C17.8125 10.5425 17.8125 20.7725 17.8125 31.3125 C6.125 31.5625 6.125 31.5625 2.46606445 31.61035156 C-1.90985645 31.74960706 -5.34257494 31.91365339 -9.33203125 33.796875 C-11.98657708 37.0405327 -11.98657708 37.0405327 -13.1875 45.3125 C9.5825 45.3125 32.3525 45.3125 55.8125 45.3125 C55.8125 81.2825 55.8125 117.2525 55.8125 154.3125 C43.2725 154.3125 30.7325 154.3125 17.8125 154.3125 C17.8125 128.5725 17.8125 102.8325 17.8125 76.3125 C7.5825 76.3125 -2.6475 76.3125 -13.1875 76.3125 C-13.1875 102.0525 -13.1875 127.7925 -13.1875 154.3125 C-25.7275 154.3125 -38.2675 154.3125 -51.1875 154.3125 C-51.1875 128.5725 -51.1875 102.8325 -51.1875 76.3125 C-57.4575 76.3125 -63.7275 76.3125 -70.1875 76.3125 C-70.1875 66.0825 -70.1875 55.8525 -70.1875 45.3125 C-63.9175 45.3125 -57.6475 45.3125 -51.1875 45.3125 C-51.1875 42.3425 -51.1875 39.3725 -51.1875 36.3125 C-49.3520347 24.47811897 -42.57249763 14.72214871 -33.421875 7.34765625 C-32.35453125 6.67605469 -31.2871875 6.00445312 -30.1875 5.3125 C-29.48262451 4.86608154 -28.77774902 4.41966309 -28.05151367 3.9597168 C-19.05170435 -0.96628387 -9.94641085 -0.25239863 0 0 Z " fill="#FBFDFC" transform="translate(133.1875,50.6875)"/>
<path d="M0 0 C0.66 0.33 1.32 0.66 2 1 C-4.29562433 8.31163287 -4.29562433 8.31163287 -7.75 11.6875 C-9.97814333 13.9775362 -11.48072817 16.20134137 -13 19 C-13.33 18.34 -13.66 17.68 -14 17 C-10.5387447 10.03194656 -6.17567923 4.66326799 0 0 Z " fill="#DBF6EB" transform="translate(100,58)"/>
<path d="M0 0 C0.66 0.33 1.32 0.66 2 1 C0.73608512 2.00873016 -0.53640883 3.00671822 -1.8125 4 C-2.87404297 4.8353125 -2.87404297 4.8353125 -3.95703125 5.6875 C-6 7 -6 7 -9 7 C-9 7.66 -9 8.32 -9 9 C-13.95 10.485 -13.95 10.485 -19 12 C-19 11.34 -19 10.68 -19 10 C-17.02 9.67 -15.04 9.34 -13 9 C-13 8.34 -13 7.68 -13 7 C-12.01 7 -11.02 7 -10 7 C-10 6.34 -10 5.68 -10 5 C-7.69 4.34 -5.38 3.68 -3 3 C-3 2.34 -3 1.68 -3 1 C-2.01 0.67 -1.02 0.34 0 0 Z " fill="#5CB484" transform="translate(235,242)"/>
<path d="M0 0 C0.33 0.99 0.66 1.98 1 3 C-0.75 5 -0.75 5 -3 7 C-4.32 7 -5.64 7 -7 7 C-7.33 8.65 -7.66 10.3 -8 12 C-9.32 11.34 -10.64 10.68 -12 10 C-10.37744772 8.51814875 -8.75188112 7.03959744 -7.125 5.5625 C-6.22007813 4.73878906 -5.31515625 3.91507813 -4.3828125 3.06640625 C-2 1 -2 1 0 0 Z " fill="#50B17E" transform="translate(27,7)"/>
<path d="M0 0 C-3.00617269 3.00617269 -5.82381598 2.59585316 -10 3 C-10 3.66 -10 4.32 -10 5 C-12.31 5 -14.62 5 -17 5 C-17 5.66 -17 6.32 -17 7 C-18.32 7 -19.64 7 -21 7 C-21 6.34 -21 5.68 -21 5 C-13.92643905 1.99443557 -7.78843043 -0.22907148 0 0 Z " fill="#59B585" transform="translate(51,0)"/>
<path d="M0 0 C1.0209375 0.2165625 1.0209375 0.2165625 2.0625 0.4375 C7.99071506 1.59570509 7.99071506 1.59570509 14 2 C14.33 2.99 14.66 3.98 15 5 C15.66 5.66 16.32 6.32 17 7 C11.94744036 6.36843005 7.70406799 4.86540627 3 3 C3 2.34 3 1.68 3 1 C2.01 0.67 1.02 0.34 0 0 Z " fill="#5DB987" transform="translate(27,248)"/>
<path d="M0 0 C3.67031204 3.67031204 4.26077422 7.77404338 4.625 12.8125 C4.69976562 13.78832031 4.77453125 14.76414062 4.8515625 15.76953125 C4.92503906 16.87361328 4.92503906 16.87361328 5 18 C3 16 3 16 2.8046875 14.0546875 C2.86979167 12.03645833 2.93489583 10.01822917 3 8 C1.68 8 0.36 8 -1 8 C-0.67 5.36 -0.34 2.72 0 0 Z " fill="#57B582" transform="translate(251,33)"/>
<path d="M0 0 C2.97 0.33 5.94 0.66 9 1 C9 1.66 9 2.32 9 3 C9.99 3.66 10.98 4.32 12 5 C7.04230204 5.29162929 3.97193147 5.12940055 0 2 C0 1.34 0 0.68 0 0 Z " fill="#42B679" transform="translate(41,251)"/>
<path d="M0 0 C1.6097168 0.01450195 1.6097168 0.01450195 3.25195312 0.02929688 C4.37150391 0.05443359 5.49105469 0.07957031 6.64453125 0.10546875 C7.77568359 0.11900391 8.90683594 0.13253906 10.07226562 0.14648438 C12.86766442 0.18186917 15.66211017 0.23123927 18.45703125 0.29296875 C18.45703125 0.62296875 18.45703125 0.95296875 18.45703125 1.29296875 C17.4966394 1.33055298 17.4966394 1.33055298 16.5168457 1.36889648 C13.60089399 1.48532335 10.68522835 1.60783742 7.76953125 1.73046875 C6.76212891 1.76978516 5.75472656 1.80910156 4.71679688 1.84960938 C3.74033203 1.89150391 2.76386719 1.93339844 1.7578125 1.9765625 C0.86231689 2.01322021 -0.03317871 2.04987793 -0.95581055 2.08764648 C-3.55074963 2.29358626 -6.00351559 2.73064697 -8.54296875 3.29296875 C-5.97630373 -0.00376988 -4.07133561 -0.06462437 0 0 Z " fill="#49B37A" transform="translate(132.54296875,81.70703125)"/>
<path d="M0 0 C2.4375 0.75 2.4375 0.75 5 2 C5.36548445 3.32488113 5.6937566 4.66018514 6 6 C8.47906969 8.7295585 8.47906969 8.7295585 11 11 C8 11 8 11 5.95703125 9.1015625 C5.24933594 8.28429687 4.54164062 7.46703125 3.8125 6.625 C3.09707031 5.81289062 2.38164062 5.00078125 1.64453125 4.1640625 C0 2 0 2 0 0 Z " fill="#5BB586" transform="translate(8,229)"/>
<path d="M0 0 C0.66 0.33 1.32 0.66 2 1 C1.48118887 5.1724106 0.28848726 7.25416821 -2.5625 10.3125 C-3.20316406 11.00988281 -3.84382812 11.70726562 -4.50390625 12.42578125 C-4.99761719 12.94527344 -5.49132812 13.46476563 -6 14 C-6.33 13.01 -6.66 12.02 -7 11 C-6.34 10.67 -5.68 10.34 -5 10 C-4.67 9.01 -4.34 8.02 -4 7 C-3.34 7 -2.68 7 -2 7 C-1.34 4.69 -0.68 2.38 0 0 Z " fill="#59B282" transform="translate(247,225)"/>
<path d="M0 0 C1.231394 2.46278801 1.07159196 4.2795055 1 7 C-0.65 7 -2.3 7 -4 7 C-4.66 8.32 -5.32 9.64 -6 11 C-6.33 10.34 -6.66 9.68 -7 9 C-4.69 6.03 -2.38 3.06 0 0 Z " fill="#53B280" transform="translate(14,18)"/>
<path d="M0 0 C0.33 0 0.66 0 1 0 C0.67 3.96 0.34 7.92 0 12 C-0.99 12.33 -1.98 12.66 -3 13 C-2.01 8.71 -1.02 4.42 0 0 Z " fill="#58B685" transform="translate(255,204)"/>
<path d="M0 0 C8.3150358 4.6372315 8.3150358 4.6372315 11 7 C11 7.66 11 8.32 11 9 C7.03935893 7.25731793 3.25563451 4.85325271 0 2 C0 1.34 0 0.68 0 0 Z " fill="#66B68B" transform="translate(228,7)"/>
<path d="M0 0 C0.33 0.66 0.66 1.32 1 2 C-2.63 2.33 -6.26 2.66 -10 3 C-5.78492722 -0.16130459 -4.93928888 -0.3367697 0 0 Z " fill="#59B786" transform="translate(215,253)"/>
<path d="M0 0 C0.66 0.33 1.32 0.66 2 1 C1.54625 1.598125 1.0925 2.19625 0.625 2.8125 C-0.63295913 4.50590652 -1.82984724 6.24477086 -3 8 C-3.99 7.34 -4.98 6.68 -6 6 C-4.02 4.02 -2.04 2.04 0 0 Z " fill="#59BA88" transform="translate(21,11)"/>
<path d="M0 0 C0.33 0 0.66 0 1 0 C1 1.65 1 3.3 1 5 C-0.98 5.99 -0.98 5.99 -3 7 C-1.125 1.125 -1.125 1.125 0 0 Z " fill="#45B77C" transform="translate(239,235)"/>
</svg>
